<svg width="18" height="19" viewBox="0 0 18 19" fill="none" xmlns="http://www.w3.org/2000/svg">
<path d="M12.5401 10.9544C14.7441 7.84227 14.007 3.53288 10.8948 1.32949C7.7827 -0.873905 3.47331 -0.137335 1.26992 2.97532C-0.933476 6.08745 -0.196905 10.3963 2.91575 12.5997C5.13705 14.1724 8.07385 14.2934 10.4168 12.9098L15.5075 17.97C16.0571 18.5486 16.9717 18.5718 17.5503 18.0221C18.1289 17.473 18.1521 16.5584 17.6029 15.9798C17.5856 15.9614 17.5687 15.9445 17.5503 15.9272L12.5401 10.9544ZM6.90081 11.4261C4.44154 11.4267 2.44769 9.4344 2.44611 6.97513C2.44559 4.51585 4.43786 2.52201 6.89766 2.52095C9.35377 2.5199 11.3466 4.50901 11.3513 6.96512C11.3555 9.42492 9.3643 11.4219 6.90397 11.4261C6.90292 11.4261 6.90239 11.4261 6.90081 11.4261Z" fill="#C4C4C4"/>
</svg>
